# xmcd CD database file
#
# Track frame offsets:
#	150
#	19127
#	51330
#	106365
#	129950
#	213257
#
# Disc length: 3293 seconds
#
# Revision: 0
# Processed by: cddbd v1.5.1PL0 Copyright (c) Steve Scherf et al.
# Submitted via: CDex 1.51
#
DISCID=4c0cdb06
DTITLE=Slide Hampton - Mellow-Dy
DYEAR=1968
DGENRE=Jazz
TTITLE0=Lament
TTITLE1=Impossible Waltz
TTITLE2=Chop Suey
TTITLE3=Mellow-Dy
TTITLE4=The Thing
TTITLE5=Us Six
EXTD=YEAR: 1968
EXTT0=
EXTT1=
EXTT2=
EXTT3=
EXTT4=
EXTT5=
PLAYORDER=
